G75*
%MOIN*%
%OFA0B0*%
%FSLAX25Y25*%
%IPPOS*%
%LPD*%
%AMOC8*
5,1,8,0,0,1.08239X$1,22.5*
%
%ADD10C,0.00000*%
%ADD11C,0.00875*%
%ADD12R,0.05315X0.02362*%
%ADD13R,0.07874X0.04724*%
%ADD14R,0.02953X0.01575*%
%ADD15R,0.06500X0.06500*%
%ADD16C,0.06500*%
%ADD17C,0.01000*%
%ADD18C,0.02400*%
%ADD19C,0.00800*%
%ADD20C,0.02000*%
%ADD21C,0.01200*%
D10*
X0001400Y0001400D02*
X0001400Y0056518D01*
X0105022Y0056518D01*
X0105022Y0001400D01*
X0001400Y0001400D01*
X0007305Y0013211D02*
X0007307Y0013364D01*
X0007313Y0013518D01*
X0007323Y0013671D01*
X0007337Y0013823D01*
X0007355Y0013976D01*
X0007377Y0014127D01*
X0007402Y0014278D01*
X0007432Y0014429D01*
X0007466Y0014579D01*
X0007503Y0014727D01*
X0007544Y0014875D01*
X0007589Y0015021D01*
X0007638Y0015167D01*
X0007691Y0015311D01*
X0007747Y0015453D01*
X0007807Y0015594D01*
X0007871Y0015734D01*
X0007938Y0015872D01*
X0008009Y0016008D01*
X0008084Y0016142D01*
X0008161Y0016274D01*
X0008243Y0016404D01*
X0008327Y0016532D01*
X0008415Y0016658D01*
X0008506Y0016781D01*
X0008600Y0016902D01*
X0008698Y0017020D01*
X0008798Y0017136D01*
X0008902Y0017249D01*
X0009008Y0017360D01*
X0009117Y0017468D01*
X0009229Y0017573D01*
X0009343Y0017674D01*
X0009461Y0017773D01*
X0009580Y0017869D01*
X0009702Y0017962D01*
X0009827Y0018051D01*
X0009954Y0018138D01*
X0010083Y0018220D01*
X0010214Y0018300D01*
X0010347Y0018376D01*
X0010482Y0018449D01*
X0010619Y0018518D01*
X0010758Y0018583D01*
X0010898Y0018645D01*
X0011040Y0018703D01*
X0011183Y0018758D01*
X0011328Y0018809D01*
X0011474Y0018856D01*
X0011621Y0018899D01*
X0011769Y0018938D01*
X0011918Y0018974D01*
X0012068Y0019005D01*
X0012219Y0019033D01*
X0012370Y0019057D01*
X0012523Y0019077D01*
X0012675Y0019093D01*
X0012828Y0019105D01*
X0012981Y0019113D01*
X0013134Y0019117D01*
X0013288Y0019117D01*
X0013441Y0019113D01*
X0013594Y0019105D01*
X0013747Y0019093D01*
X0013899Y0019077D01*
X0014052Y0019057D01*
X0014203Y0019033D01*
X0014354Y0019005D01*
X0014504Y0018974D01*
X0014653Y0018938D01*
X0014801Y0018899D01*
X0014948Y0018856D01*
X0015094Y0018809D01*
X0015239Y0018758D01*
X0015382Y0018703D01*
X0015524Y0018645D01*
X0015664Y0018583D01*
X0015803Y0018518D01*
X0015940Y0018449D01*
X0016075Y0018376D01*
X0016208Y0018300D01*
X0016339Y0018220D01*
X0016468Y0018138D01*
X0016595Y0018051D01*
X0016720Y0017962D01*
X0016842Y0017869D01*
X0016961Y0017773D01*
X0017079Y0017674D01*
X0017193Y0017573D01*
X0017305Y0017468D01*
X0017414Y0017360D01*
X0017520Y0017249D01*
X0017624Y0017136D01*
X0017724Y0017020D01*
X0017822Y0016902D01*
X0017916Y0016781D01*
X0018007Y0016658D01*
X0018095Y0016532D01*
X0018179Y0016404D01*
X0018261Y0016274D01*
X0018338Y0016142D01*
X0018413Y0016008D01*
X0018484Y0015872D01*
X0018551Y0015734D01*
X0018615Y0015594D01*
X0018675Y0015453D01*
X0018731Y0015311D01*
X0018784Y0015167D01*
X0018833Y0015021D01*
X0018878Y0014875D01*
X0018919Y0014727D01*
X0018956Y0014579D01*
X0018990Y0014429D01*
X0019020Y0014278D01*
X0019045Y0014127D01*
X0019067Y0013976D01*
X0019085Y0013823D01*
X0019099Y0013671D01*
X0019109Y0013518D01*
X0019115Y0013364D01*
X0019117Y0013211D01*
X0019115Y0013058D01*
X0019109Y0012904D01*
X0019099Y0012751D01*
X0019085Y0012599D01*
X0019067Y0012446D01*
X0019045Y0012295D01*
X0019020Y0012144D01*
X0018990Y0011993D01*
X0018956Y0011843D01*
X0018919Y0011695D01*
X0018878Y0011547D01*
X0018833Y0011401D01*
X0018784Y0011255D01*
X0018731Y0011111D01*
X0018675Y0010969D01*
X0018615Y0010828D01*
X0018551Y0010688D01*
X0018484Y0010550D01*
X0018413Y0010414D01*
X0018338Y0010280D01*
X0018261Y0010148D01*
X0018179Y0010018D01*
X0018095Y0009890D01*
X0018007Y0009764D01*
X0017916Y0009641D01*
X0017822Y0009520D01*
X0017724Y0009402D01*
X0017624Y0009286D01*
X0017520Y0009173D01*
X0017414Y0009062D01*
X0017305Y0008954D01*
X0017193Y0008849D01*
X0017079Y0008748D01*
X0016961Y0008649D01*
X0016842Y0008553D01*
X0016720Y0008460D01*
X0016595Y0008371D01*
X0016468Y0008284D01*
X0016339Y0008202D01*
X0016208Y0008122D01*
X0016075Y0008046D01*
X0015940Y0007973D01*
X0015803Y0007904D01*
X0015664Y0007839D01*
X0015524Y0007777D01*
X0015382Y0007719D01*
X0015239Y0007664D01*
X0015094Y0007613D01*
X0014948Y0007566D01*
X0014801Y0007523D01*
X0014653Y0007484D01*
X0014504Y0007448D01*
X0014354Y0007417D01*
X0014203Y0007389D01*
X0014052Y0007365D01*
X0013899Y0007345D01*
X0013747Y0007329D01*
X0013594Y0007317D01*
X0013441Y0007309D01*
X0013288Y0007305D01*
X0013134Y0007305D01*
X0012981Y0007309D01*
X0012828Y0007317D01*
X0012675Y0007329D01*
X0012523Y0007345D01*
X0012370Y0007365D01*
X0012219Y0007389D01*
X0012068Y0007417D01*
X0011918Y0007448D01*
X0011769Y0007484D01*
X0011621Y0007523D01*
X0011474Y0007566D01*
X0011328Y0007613D01*
X0011183Y0007664D01*
X0011040Y0007719D01*
X0010898Y0007777D01*
X0010758Y0007839D01*
X0010619Y0007904D01*
X0010482Y0007973D01*
X0010347Y0008046D01*
X0010214Y0008122D01*
X0010083Y0008202D01*
X0009954Y0008284D01*
X0009827Y0008371D01*
X0009702Y0008460D01*
X0009580Y0008553D01*
X0009461Y0008649D01*
X0009343Y0008748D01*
X0009229Y0008849D01*
X0009117Y0008954D01*
X0009008Y0009062D01*
X0008902Y0009173D01*
X0008798Y0009286D01*
X0008698Y0009402D01*
X0008600Y0009520D01*
X0008506Y0009641D01*
X0008415Y0009764D01*
X0008327Y0009890D01*
X0008243Y0010018D01*
X0008161Y0010148D01*
X0008084Y0010280D01*
X0008009Y0010414D01*
X0007938Y0010550D01*
X0007871Y0010688D01*
X0007807Y0010828D01*
X0007747Y0010969D01*
X0007691Y0011111D01*
X0007638Y0011255D01*
X0007589Y0011401D01*
X0007544Y0011547D01*
X0007503Y0011695D01*
X0007466Y0011843D01*
X0007432Y0011993D01*
X0007402Y0012144D01*
X0007377Y0012295D01*
X0007355Y0012446D01*
X0007337Y0012599D01*
X0007323Y0012751D01*
X0007313Y0012904D01*
X0007307Y0013058D01*
X0007305Y0013211D01*
X0087305Y0013211D02*
X0087307Y0013364D01*
X0087313Y0013518D01*
X0087323Y0013671D01*
X0087337Y0013823D01*
X0087355Y0013976D01*
X0087377Y0014127D01*
X0087402Y0014278D01*
X0087432Y0014429D01*
X0087466Y0014579D01*
X0087503Y0014727D01*
X0087544Y0014875D01*
X0087589Y0015021D01*
X0087638Y0015167D01*
X0087691Y0015311D01*
X0087747Y0015453D01*
X0087807Y0015594D01*
X0087871Y0015734D01*
X0087938Y0015872D01*
X0088009Y0016008D01*
X0088084Y0016142D01*
X0088161Y0016274D01*
X0088243Y0016404D01*
X0088327Y0016532D01*
X0088415Y0016658D01*
X0088506Y0016781D01*
X0088600Y0016902D01*
X0088698Y0017020D01*
X0088798Y0017136D01*
X0088902Y0017249D01*
X0089008Y0017360D01*
X0089117Y0017468D01*
X0089229Y0017573D01*
X0089343Y0017674D01*
X0089461Y0017773D01*
X0089580Y0017869D01*
X0089702Y0017962D01*
X0089827Y0018051D01*
X0089954Y0018138D01*
X0090083Y0018220D01*
X0090214Y0018300D01*
X0090347Y0018376D01*
X0090482Y0018449D01*
X0090619Y0018518D01*
X0090758Y0018583D01*
X0090898Y0018645D01*
X0091040Y0018703D01*
X0091183Y0018758D01*
X0091328Y0018809D01*
X0091474Y0018856D01*
X0091621Y0018899D01*
X0091769Y0018938D01*
X0091918Y0018974D01*
X0092068Y0019005D01*
X0092219Y0019033D01*
X0092370Y0019057D01*
X0092523Y0019077D01*
X0092675Y0019093D01*
X0092828Y0019105D01*
X0092981Y0019113D01*
X0093134Y0019117D01*
X0093288Y0019117D01*
X0093441Y0019113D01*
X0093594Y0019105D01*
X0093747Y0019093D01*
X0093899Y0019077D01*
X0094052Y0019057D01*
X0094203Y0019033D01*
X0094354Y0019005D01*
X0094504Y0018974D01*
X0094653Y0018938D01*
X0094801Y0018899D01*
X0094948Y0018856D01*
X0095094Y0018809D01*
X0095239Y0018758D01*
X0095382Y0018703D01*
X0095524Y0018645D01*
X0095664Y0018583D01*
X0095803Y0018518D01*
X0095940Y0018449D01*
X0096075Y0018376D01*
X0096208Y0018300D01*
X0096339Y0018220D01*
X0096468Y0018138D01*
X0096595Y0018051D01*
X0096720Y0017962D01*
X0096842Y0017869D01*
X0096961Y0017773D01*
X0097079Y0017674D01*
X0097193Y0017573D01*
X0097305Y0017468D01*
X0097414Y0017360D01*
X0097520Y0017249D01*
X0097624Y0017136D01*
X0097724Y0017020D01*
X0097822Y0016902D01*
X0097916Y0016781D01*
X0098007Y0016658D01*
X0098095Y0016532D01*
X0098179Y0016404D01*
X0098261Y0016274D01*
X0098338Y0016142D01*
X0098413Y0016008D01*
X0098484Y0015872D01*
X0098551Y0015734D01*
X0098615Y0015594D01*
X0098675Y0015453D01*
X0098731Y0015311D01*
X0098784Y0015167D01*
X0098833Y0015021D01*
X0098878Y0014875D01*
X0098919Y0014727D01*
X0098956Y0014579D01*
X0098990Y0014429D01*
X0099020Y0014278D01*
X0099045Y0014127D01*
X0099067Y0013976D01*
X0099085Y0013823D01*
X0099099Y0013671D01*
X0099109Y0013518D01*
X0099115Y0013364D01*
X0099117Y0013211D01*
X0099115Y0013058D01*
X0099109Y0012904D01*
X0099099Y0012751D01*
X0099085Y0012599D01*
X0099067Y0012446D01*
X0099045Y0012295D01*
X0099020Y0012144D01*
X0098990Y0011993D01*
X0098956Y0011843D01*
X0098919Y0011695D01*
X0098878Y0011547D01*
X0098833Y0011401D01*
X0098784Y0011255D01*
X0098731Y0011111D01*
X0098675Y0010969D01*
X0098615Y0010828D01*
X0098551Y0010688D01*
X0098484Y0010550D01*
X0098413Y0010414D01*
X0098338Y0010280D01*
X0098261Y0010148D01*
X0098179Y0010018D01*
X0098095Y0009890D01*
X0098007Y0009764D01*
X0097916Y0009641D01*
X0097822Y0009520D01*
X0097724Y0009402D01*
X0097624Y0009286D01*
X0097520Y0009173D01*
X0097414Y0009062D01*
X0097305Y0008954D01*
X0097193Y0008849D01*
X0097079Y0008748D01*
X0096961Y0008649D01*
X0096842Y0008553D01*
X0096720Y0008460D01*
X0096595Y0008371D01*
X0096468Y0008284D01*
X0096339Y0008202D01*
X0096208Y0008122D01*
X0096075Y0008046D01*
X0095940Y0007973D01*
X0095803Y0007904D01*
X0095664Y0007839D01*
X0095524Y0007777D01*
X0095382Y0007719D01*
X0095239Y0007664D01*
X0095094Y0007613D01*
X0094948Y0007566D01*
X0094801Y0007523D01*
X0094653Y0007484D01*
X0094504Y0007448D01*
X0094354Y0007417D01*
X0094203Y0007389D01*
X0094052Y0007365D01*
X0093899Y0007345D01*
X0093747Y0007329D01*
X0093594Y0007317D01*
X0093441Y0007309D01*
X0093288Y0007305D01*
X0093134Y0007305D01*
X0092981Y0007309D01*
X0092828Y0007317D01*
X0092675Y0007329D01*
X0092523Y0007345D01*
X0092370Y0007365D01*
X0092219Y0007389D01*
X0092068Y0007417D01*
X0091918Y0007448D01*
X0091769Y0007484D01*
X0091621Y0007523D01*
X0091474Y0007566D01*
X0091328Y0007613D01*
X0091183Y0007664D01*
X0091040Y0007719D01*
X0090898Y0007777D01*
X0090758Y0007839D01*
X0090619Y0007904D01*
X0090482Y0007973D01*
X0090347Y0008046D01*
X0090214Y0008122D01*
X0090083Y0008202D01*
X0089954Y0008284D01*
X0089827Y0008371D01*
X0089702Y0008460D01*
X0089580Y0008553D01*
X0089461Y0008649D01*
X0089343Y0008748D01*
X0089229Y0008849D01*
X0089117Y0008954D01*
X0089008Y0009062D01*
X0088902Y0009173D01*
X0088798Y0009286D01*
X0088698Y0009402D01*
X0088600Y0009520D01*
X0088506Y0009641D01*
X0088415Y0009764D01*
X0088327Y0009890D01*
X0088243Y0010018D01*
X0088161Y0010148D01*
X0088084Y0010280D01*
X0088009Y0010414D01*
X0087938Y0010550D01*
X0087871Y0010688D01*
X0087807Y0010828D01*
X0087747Y0010969D01*
X0087691Y0011111D01*
X0087638Y0011255D01*
X0087589Y0011401D01*
X0087544Y0011547D01*
X0087503Y0011695D01*
X0087466Y0011843D01*
X0087432Y0011993D01*
X0087402Y0012144D01*
X0087377Y0012295D01*
X0087355Y0012446D01*
X0087337Y0012599D01*
X0087323Y0012751D01*
X0087313Y0012904D01*
X0087307Y0013058D01*
X0087305Y0013211D01*
D11*
X0055918Y0023469D02*
X0055918Y0026095D01*
X0058544Y0026095D01*
X0058544Y0023469D01*
X0055918Y0023469D01*
X0055918Y0024343D02*
X0058544Y0024343D01*
X0058544Y0025217D02*
X0055918Y0025217D01*
X0055918Y0026091D02*
X0058544Y0026091D01*
X0055918Y0029469D02*
X0055918Y0032095D01*
X0058544Y0032095D01*
X0058544Y0029469D01*
X0055918Y0029469D01*
X0055918Y0030343D02*
X0058544Y0030343D01*
X0058544Y0031217D02*
X0055918Y0031217D01*
X0055918Y0032091D02*
X0058544Y0032091D01*
X0058582Y0035205D02*
X0058582Y0037831D01*
X0058582Y0035205D02*
X0055956Y0035205D01*
X0055956Y0037831D01*
X0058582Y0037831D01*
X0058582Y0036079D02*
X0055956Y0036079D01*
X0055956Y0036953D02*
X0058582Y0036953D01*
X0058582Y0037827D02*
X0055956Y0037827D01*
X0058582Y0041205D02*
X0058582Y0043831D01*
X0058582Y0041205D02*
X0055956Y0041205D01*
X0055956Y0043831D01*
X0058582Y0043831D01*
X0058582Y0042079D02*
X0055956Y0042079D01*
X0055956Y0042953D02*
X0058582Y0042953D01*
X0058582Y0043827D02*
X0055956Y0043827D01*
X0033575Y0037463D02*
X0033575Y0034837D01*
X0030949Y0034837D01*
X0030949Y0037463D01*
X0033575Y0037463D01*
X0033575Y0035711D02*
X0030949Y0035711D01*
X0030949Y0036585D02*
X0033575Y0036585D01*
X0033575Y0037459D02*
X0030949Y0037459D01*
X0033575Y0031463D02*
X0033575Y0028837D01*
X0030949Y0028837D01*
X0030949Y0031463D01*
X0033575Y0031463D01*
X0033575Y0029711D02*
X0030949Y0029711D01*
X0030949Y0030585D02*
X0033575Y0030585D01*
X0033575Y0031459D02*
X0030949Y0031459D01*
D12*
X0021400Y0034865D03*
X0021400Y0038802D03*
X0021400Y0042739D03*
X0021400Y0046676D03*
X0085243Y0046676D03*
X0085243Y0042739D03*
X0085243Y0038802D03*
X0085243Y0034865D03*
D13*
X0099712Y0029746D03*
X0099712Y0051794D03*
X0006931Y0051794D03*
X0006931Y0029746D03*
D14*
X0041820Y0031059D03*
X0041820Y0033618D03*
X0041820Y0036177D03*
X0048317Y0036177D03*
X0048317Y0033677D03*
X0048317Y0031059D03*
D15*
X0068211Y0007000D03*
D16*
X0058211Y0007000D03*
X0048211Y0007000D03*
X0038211Y0007000D03*
D17*
X0045100Y0013889D01*
X0045100Y0034900D01*
X0046377Y0036177D01*
X0048317Y0036177D01*
X0056928Y0036177D01*
X0057269Y0036518D01*
X0057287Y0036500D01*
X0067700Y0036500D01*
X0077876Y0046676D01*
X0085243Y0046676D01*
X0085243Y0042739D02*
X0078239Y0042739D01*
X0066200Y0030700D01*
X0057313Y0030700D01*
X0057231Y0030782D01*
X0056954Y0031059D01*
X0048317Y0031059D01*
X0048317Y0007106D01*
X0048211Y0007000D01*
X0026365Y0034865D02*
X0021400Y0034865D01*
X0026365Y0034865D02*
X0026400Y0034900D01*
X0026400Y0038800D02*
X0026398Y0038802D01*
X0021400Y0038802D01*
D18*
X0026400Y0038800D03*
X0026400Y0034900D03*
X0038600Y0033600D03*
X0041300Y0028000D03*
X0052300Y0028000D03*
X0052300Y0023000D03*
X0052300Y0018000D03*
X0041300Y0018000D03*
X0062300Y0028000D03*
X0062300Y0033600D03*
X0052300Y0033600D03*
X0051500Y0042739D03*
D19*
X0052653Y0044839D02*
X0052453Y0045039D01*
X0050547Y0045039D01*
X0050347Y0044839D01*
X0024694Y0044839D01*
X0024513Y0045020D01*
X0018287Y0045020D01*
X0017643Y0044375D01*
X0017643Y0041102D01*
X0017974Y0040770D01*
X0017643Y0040438D01*
X0017643Y0037165D01*
X0017974Y0036833D01*
X0017643Y0036501D01*
X0017643Y0033228D01*
X0018287Y0032583D01*
X0024513Y0032583D01*
X0024988Y0033059D01*
X0025447Y0032600D01*
X0027353Y0032600D01*
X0028700Y0033947D01*
X0028700Y0035853D01*
X0027703Y0036850D01*
X0028700Y0037847D01*
X0028700Y0039753D01*
X0027814Y0040639D01*
X0030130Y0040639D01*
X0030162Y0040607D01*
X0030162Y0038849D01*
X0029412Y0038099D01*
X0029412Y0034200D01*
X0030313Y0033300D01*
X0032708Y0033300D01*
X0036649Y0029359D01*
X0039701Y0029359D01*
X0039888Y0029172D01*
X0043500Y0029172D01*
X0043500Y0014552D01*
X0039940Y0010992D01*
X0039076Y0011350D01*
X0037346Y0011350D01*
X0035747Y0010688D01*
X0034523Y0009464D01*
X0033861Y0007865D01*
X0033861Y0006135D01*
X0034523Y0004536D01*
X0035259Y0003800D01*
X0003800Y0003800D01*
X0003800Y0054118D01*
X0102622Y0054118D01*
X0102622Y0003800D01*
X0061163Y0003800D01*
X0061899Y0004536D01*
X0062561Y0006135D01*
X0062561Y0007865D01*
X0061899Y0009464D01*
X0060675Y0010688D01*
X0059331Y0011244D01*
X0059331Y0022083D01*
X0059931Y0022682D01*
X0065552Y0022682D01*
X0079571Y0036702D01*
X0081949Y0036702D01*
X0082130Y0036520D01*
X0088356Y0036520D01*
X0089001Y0037165D01*
X0089001Y0040438D01*
X0088669Y0040770D01*
X0089001Y0041102D01*
X0089001Y0044375D01*
X0088669Y0044707D01*
X0089001Y0045039D01*
X0089001Y0048312D01*
X0088356Y0048957D01*
X0082130Y0048957D01*
X0081486Y0048312D01*
X0081486Y0048276D01*
X0077213Y0048276D01*
X0067037Y0038100D01*
X0060118Y0038100D01*
X0060118Y0038467D01*
X0059218Y0039368D01*
X0055319Y0039368D01*
X0054419Y0038467D01*
X0054419Y0037777D01*
X0050536Y0037777D01*
X0050249Y0038065D01*
X0046385Y0038065D01*
X0046097Y0037777D01*
X0045714Y0037777D01*
X0044437Y0036500D01*
X0044397Y0036460D01*
X0044397Y0037420D01*
X0043752Y0038065D01*
X0039888Y0038065D01*
X0039701Y0037877D01*
X0035112Y0037877D01*
X0035112Y0038099D01*
X0034362Y0038849D01*
X0034362Y0040631D01*
X0034370Y0040639D01*
X0050347Y0040639D01*
X0050547Y0040439D01*
X0052453Y0040439D01*
X0052653Y0040639D01*
X0054419Y0040639D01*
X0054419Y0040569D01*
X0055319Y0039668D01*
X0059218Y0039668D01*
X0060118Y0040569D01*
X0060118Y0044467D01*
X0059218Y0045368D01*
X0055319Y0045368D01*
X0054790Y0044839D01*
X0052653Y0044839D01*
X0055269Y0045318D02*
X0003800Y0045318D01*
X0003800Y0044520D02*
X0017787Y0044520D01*
X0017643Y0043721D02*
X0003800Y0043721D01*
X0003800Y0042923D02*
X0017643Y0042923D01*
X0017643Y0042124D02*
X0003800Y0042124D01*
X0003800Y0041326D02*
X0017643Y0041326D01*
X0017731Y0040527D02*
X0003800Y0040527D01*
X0003800Y0039729D02*
X0017643Y0039729D01*
X0017643Y0038930D02*
X0003800Y0038930D01*
X0003800Y0038132D02*
X0017643Y0038132D01*
X0017643Y0037333D02*
X0003800Y0037333D01*
X0003800Y0036534D02*
X0017676Y0036534D01*
X0017643Y0035736D02*
X0003800Y0035736D01*
X0003800Y0034937D02*
X0017643Y0034937D01*
X0017643Y0034139D02*
X0003800Y0034139D01*
X0003800Y0033340D02*
X0017643Y0033340D01*
X0028093Y0033340D02*
X0030272Y0033340D01*
X0029473Y0034139D02*
X0028700Y0034139D01*
X0028700Y0034937D02*
X0029412Y0034937D01*
X0029412Y0035736D02*
X0028700Y0035736D01*
X0028018Y0036534D02*
X0029412Y0036534D01*
X0029412Y0037333D02*
X0028186Y0037333D01*
X0028700Y0038132D02*
X0029445Y0038132D01*
X0030162Y0038930D02*
X0028700Y0038930D01*
X0028700Y0039729D02*
X0030162Y0039729D01*
X0030162Y0040527D02*
X0027926Y0040527D01*
X0034362Y0040527D02*
X0050459Y0040527D01*
X0052541Y0040527D02*
X0054460Y0040527D01*
X0055259Y0039729D02*
X0034362Y0039729D01*
X0034362Y0038930D02*
X0054881Y0038930D01*
X0054419Y0038132D02*
X0035080Y0038132D01*
X0036339Y0034477D02*
X0039701Y0034477D01*
X0039888Y0034290D01*
X0043500Y0034290D01*
X0043500Y0032946D01*
X0039888Y0032946D01*
X0039701Y0032759D01*
X0038057Y0032759D01*
X0036339Y0034477D01*
X0036677Y0034139D02*
X0043500Y0034139D01*
X0043500Y0033340D02*
X0037476Y0033340D01*
X0034264Y0031743D02*
X0003800Y0031743D01*
X0003800Y0032542D02*
X0033466Y0032542D01*
X0035063Y0030945D02*
X0003800Y0030945D01*
X0003800Y0030146D02*
X0035861Y0030146D01*
X0039712Y0029348D02*
X0003800Y0029348D01*
X0003800Y0028549D02*
X0043500Y0028549D01*
X0043500Y0027751D02*
X0003800Y0027751D01*
X0003800Y0026952D02*
X0043500Y0026952D01*
X0043500Y0026154D02*
X0003800Y0026154D01*
X0003800Y0025355D02*
X0043500Y0025355D01*
X0043500Y0024557D02*
X0003800Y0024557D01*
X0003800Y0023758D02*
X0043500Y0023758D01*
X0043500Y0022960D02*
X0003800Y0022960D01*
X0003800Y0022161D02*
X0043500Y0022161D01*
X0043500Y0021363D02*
X0015234Y0021363D01*
X0014863Y0021517D02*
X0011559Y0021517D01*
X0008506Y0020252D01*
X0006170Y0017916D01*
X0004906Y0014863D01*
X0004906Y0011559D01*
X0006170Y0008506D01*
X0008506Y0006170D01*
X0011559Y0004906D01*
X0014863Y0004906D01*
X0017916Y0006170D01*
X0020252Y0008506D01*
X0021517Y0011559D01*
X0021517Y0014863D01*
X0020252Y0017916D01*
X0017916Y0020252D01*
X0014863Y0021517D01*
X0017162Y0020564D02*
X0043500Y0020564D01*
X0043500Y0019766D02*
X0018402Y0019766D01*
X0019201Y0018967D02*
X0043500Y0018967D01*
X0043500Y0018169D02*
X0019999Y0018169D01*
X0020478Y0017370D02*
X0043500Y0017370D01*
X0043500Y0016572D02*
X0020809Y0016572D01*
X0021140Y0015773D02*
X0043500Y0015773D01*
X0043500Y0014975D02*
X0021470Y0014975D01*
X0021517Y0014176D02*
X0043124Y0014176D01*
X0042326Y0013378D02*
X0021517Y0013378D01*
X0021517Y0012579D02*
X0041527Y0012579D01*
X0040729Y0011781D02*
X0021517Y0011781D01*
X0021278Y0010982D02*
X0036458Y0010982D01*
X0035243Y0010184D02*
X0020947Y0010184D01*
X0020616Y0009385D02*
X0034491Y0009385D01*
X0034160Y0008587D02*
X0020285Y0008587D01*
X0019534Y0007788D02*
X0033861Y0007788D01*
X0033861Y0006990D02*
X0018735Y0006990D01*
X0017937Y0006191D02*
X0033861Y0006191D01*
X0034168Y0005393D02*
X0016039Y0005393D01*
X0010383Y0005393D02*
X0003800Y0005393D01*
X0003800Y0006191D02*
X0008485Y0006191D01*
X0007687Y0006990D02*
X0003800Y0006990D01*
X0003800Y0007788D02*
X0006888Y0007788D01*
X0006137Y0008587D02*
X0003800Y0008587D01*
X0003800Y0009385D02*
X0005806Y0009385D01*
X0005475Y0010184D02*
X0003800Y0010184D01*
X0003800Y0010982D02*
X0005144Y0010982D01*
X0004906Y0011781D02*
X0003800Y0011781D01*
X0003800Y0012579D02*
X0004906Y0012579D01*
X0004906Y0013378D02*
X0003800Y0013378D01*
X0003800Y0014176D02*
X0004906Y0014176D01*
X0004952Y0014975D02*
X0003800Y0014975D01*
X0003800Y0015773D02*
X0005282Y0015773D01*
X0005613Y0016572D02*
X0003800Y0016572D01*
X0003800Y0017370D02*
X0005944Y0017370D01*
X0006423Y0018169D02*
X0003800Y0018169D01*
X0003800Y0018967D02*
X0007221Y0018967D01*
X0008020Y0019766D02*
X0003800Y0019766D01*
X0003800Y0020564D02*
X0009260Y0020564D01*
X0011188Y0021363D02*
X0003800Y0021363D01*
X0003800Y0004594D02*
X0034499Y0004594D01*
X0049917Y0011002D02*
X0049917Y0029172D01*
X0050249Y0029172D01*
X0050536Y0029459D01*
X0054381Y0029459D01*
X0054381Y0028833D01*
X0055282Y0027932D01*
X0059181Y0027932D01*
X0060081Y0028833D01*
X0060081Y0029100D01*
X0066030Y0029100D01*
X0063812Y0026882D01*
X0059931Y0026882D01*
X0059181Y0027632D01*
X0055282Y0027632D01*
X0054381Y0026731D01*
X0054381Y0022833D01*
X0055131Y0022083D01*
X0055131Y0010072D01*
X0054523Y0009464D01*
X0053861Y0007865D01*
X0053861Y0006135D01*
X0054523Y0004536D01*
X0055259Y0003800D01*
X0051163Y0003800D01*
X0051899Y0004536D01*
X0052561Y0006135D01*
X0052561Y0007865D01*
X0051899Y0009464D01*
X0050675Y0010688D01*
X0049917Y0011002D01*
X0049964Y0010982D02*
X0055131Y0010982D01*
X0055131Y0010184D02*
X0051179Y0010184D01*
X0051931Y0009385D02*
X0054491Y0009385D01*
X0054160Y0008587D02*
X0052262Y0008587D01*
X0052561Y0007788D02*
X0053861Y0007788D01*
X0053861Y0006990D02*
X0052561Y0006990D01*
X0052561Y0006191D02*
X0053861Y0006191D01*
X0054168Y0005393D02*
X0052254Y0005393D01*
X0051923Y0004594D02*
X0054499Y0004594D01*
X0061923Y0004594D02*
X0102622Y0004594D01*
X0102622Y0005393D02*
X0096039Y0005393D01*
X0094863Y0004906D02*
X0097916Y0006170D01*
X0100252Y0008506D01*
X0101517Y0011559D01*
X0101517Y0014863D01*
X0100252Y0017916D01*
X0097916Y0020252D01*
X0094863Y0021517D01*
X0091559Y0021517D01*
X0088506Y0020252D01*
X0086170Y0017916D01*
X0084906Y0014863D01*
X0084906Y0011559D01*
X0086170Y0008506D01*
X0088506Y0006170D01*
X0091559Y0004906D01*
X0094863Y0004906D01*
X0097937Y0006191D02*
X0102622Y0006191D01*
X0102622Y0006990D02*
X0098735Y0006990D01*
X0099534Y0007788D02*
X0102622Y0007788D01*
X0102622Y0008587D02*
X0100285Y0008587D01*
X0100616Y0009385D02*
X0102622Y0009385D01*
X0102622Y0010184D02*
X0100947Y0010184D01*
X0101278Y0010982D02*
X0102622Y0010982D01*
X0102622Y0011781D02*
X0101517Y0011781D01*
X0101517Y0012579D02*
X0102622Y0012579D01*
X0102622Y0013378D02*
X0101517Y0013378D01*
X0101517Y0014176D02*
X0102622Y0014176D01*
X0102622Y0014975D02*
X0101470Y0014975D01*
X0101140Y0015773D02*
X0102622Y0015773D01*
X0102622Y0016572D02*
X0100809Y0016572D01*
X0100478Y0017370D02*
X0102622Y0017370D01*
X0102622Y0018169D02*
X0099999Y0018169D01*
X0099201Y0018967D02*
X0102622Y0018967D01*
X0102622Y0019766D02*
X0098402Y0019766D01*
X0097162Y0020564D02*
X0102622Y0020564D01*
X0102622Y0021363D02*
X0095234Y0021363D01*
X0091188Y0021363D02*
X0059331Y0021363D01*
X0059331Y0020564D02*
X0089260Y0020564D01*
X0088020Y0019766D02*
X0059331Y0019766D01*
X0059331Y0018967D02*
X0087221Y0018967D01*
X0086423Y0018169D02*
X0059331Y0018169D01*
X0059331Y0017370D02*
X0085944Y0017370D01*
X0085613Y0016572D02*
X0059331Y0016572D01*
X0059331Y0015773D02*
X0085282Y0015773D01*
X0084952Y0014975D02*
X0059331Y0014975D01*
X0059331Y0014176D02*
X0084906Y0014176D01*
X0084906Y0013378D02*
X0059331Y0013378D01*
X0059331Y0012579D02*
X0084906Y0012579D01*
X0084906Y0011781D02*
X0059331Y0011781D01*
X0059964Y0010982D02*
X0085144Y0010982D01*
X0085475Y0010184D02*
X0061179Y0010184D01*
X0061931Y0009385D02*
X0085806Y0009385D01*
X0086137Y0008587D02*
X0062262Y0008587D01*
X0062561Y0007788D02*
X0086888Y0007788D01*
X0087687Y0006990D02*
X0062561Y0006990D01*
X0062561Y0006191D02*
X0088485Y0006191D01*
X0090383Y0005393D02*
X0062254Y0005393D01*
X0055131Y0011781D02*
X0049917Y0011781D01*
X0049917Y0012579D02*
X0055131Y0012579D01*
X0055131Y0013378D02*
X0049917Y0013378D01*
X0049917Y0014176D02*
X0055131Y0014176D01*
X0055131Y0014975D02*
X0049917Y0014975D01*
X0049917Y0015773D02*
X0055131Y0015773D01*
X0055131Y0016572D02*
X0049917Y0016572D01*
X0049917Y0017370D02*
X0055131Y0017370D01*
X0055131Y0018169D02*
X0049917Y0018169D01*
X0049917Y0018967D02*
X0055131Y0018967D01*
X0055131Y0019766D02*
X0049917Y0019766D01*
X0049917Y0020564D02*
X0055131Y0020564D01*
X0055131Y0021363D02*
X0049917Y0021363D01*
X0049917Y0022161D02*
X0055053Y0022161D01*
X0054381Y0022960D02*
X0049917Y0022960D01*
X0049917Y0023758D02*
X0054381Y0023758D01*
X0054381Y0024557D02*
X0049917Y0024557D01*
X0049917Y0025355D02*
X0054381Y0025355D01*
X0054381Y0026154D02*
X0049917Y0026154D01*
X0049917Y0026952D02*
X0054603Y0026952D01*
X0054665Y0028549D02*
X0049917Y0028549D01*
X0049917Y0027751D02*
X0064681Y0027751D01*
X0065480Y0028549D02*
X0059798Y0028549D01*
X0059860Y0026952D02*
X0063883Y0026952D01*
X0067427Y0024557D02*
X0102622Y0024557D01*
X0102622Y0025355D02*
X0068225Y0025355D01*
X0069024Y0026154D02*
X0102622Y0026154D01*
X0102622Y0026952D02*
X0069822Y0026952D01*
X0070621Y0027751D02*
X0102622Y0027751D01*
X0102622Y0028549D02*
X0071419Y0028549D01*
X0072218Y0029348D02*
X0102622Y0029348D01*
X0102622Y0030146D02*
X0073016Y0030146D01*
X0073815Y0030945D02*
X0102622Y0030945D01*
X0102622Y0031743D02*
X0074613Y0031743D01*
X0075412Y0032542D02*
X0102622Y0032542D01*
X0102622Y0033340D02*
X0076210Y0033340D01*
X0077009Y0034139D02*
X0102622Y0034139D01*
X0102622Y0034937D02*
X0077807Y0034937D01*
X0078606Y0035736D02*
X0102622Y0035736D01*
X0102622Y0036534D02*
X0088370Y0036534D01*
X0089001Y0037333D02*
X0102622Y0037333D01*
X0102622Y0038132D02*
X0089001Y0038132D01*
X0089001Y0038930D02*
X0102622Y0038930D01*
X0102622Y0039729D02*
X0089001Y0039729D01*
X0088912Y0040527D02*
X0102622Y0040527D01*
X0102622Y0041326D02*
X0089001Y0041326D01*
X0089001Y0042124D02*
X0102622Y0042124D01*
X0102622Y0042923D02*
X0089001Y0042923D01*
X0089001Y0043721D02*
X0102622Y0043721D01*
X0102622Y0044520D02*
X0088856Y0044520D01*
X0089001Y0045318D02*
X0102622Y0045318D01*
X0102622Y0046117D02*
X0089001Y0046117D01*
X0089001Y0046915D02*
X0102622Y0046915D01*
X0102622Y0047714D02*
X0089001Y0047714D01*
X0088801Y0048512D02*
X0102622Y0048512D01*
X0102622Y0049311D02*
X0003800Y0049311D01*
X0003800Y0050109D02*
X0102622Y0050109D01*
X0102622Y0050908D02*
X0003800Y0050908D01*
X0003800Y0051706D02*
X0102622Y0051706D01*
X0102622Y0052505D02*
X0003800Y0052505D01*
X0003800Y0053303D02*
X0102622Y0053303D01*
X0102622Y0054102D02*
X0003800Y0054102D01*
X0003800Y0048512D02*
X0081686Y0048512D01*
X0076651Y0047714D02*
X0003800Y0047714D01*
X0003800Y0046915D02*
X0075852Y0046915D01*
X0075054Y0046117D02*
X0003800Y0046117D01*
X0044397Y0037333D02*
X0045270Y0037333D01*
X0044472Y0036534D02*
X0044397Y0036534D01*
X0046700Y0034237D02*
X0046752Y0034290D01*
X0050249Y0034290D01*
X0050536Y0034577D01*
X0054419Y0034577D01*
X0054419Y0034569D01*
X0055319Y0033668D01*
X0059218Y0033668D01*
X0060118Y0034569D01*
X0060118Y0034900D01*
X0068137Y0034900D01*
X0065537Y0032300D01*
X0060081Y0032300D01*
X0060081Y0032731D01*
X0059181Y0033632D01*
X0055282Y0033632D01*
X0054381Y0032731D01*
X0054381Y0032659D01*
X0050536Y0032659D01*
X0050249Y0032946D01*
X0046700Y0032946D01*
X0046700Y0034237D01*
X0046700Y0034139D02*
X0054848Y0034139D01*
X0054991Y0033340D02*
X0046700Y0033340D01*
X0050425Y0029348D02*
X0054381Y0029348D01*
X0060081Y0032542D02*
X0065779Y0032542D01*
X0066578Y0033340D02*
X0059472Y0033340D01*
X0059689Y0034139D02*
X0067376Y0034139D01*
X0067069Y0038132D02*
X0060118Y0038132D01*
X0059656Y0038930D02*
X0067867Y0038930D01*
X0068666Y0039729D02*
X0059278Y0039729D01*
X0060077Y0040527D02*
X0069464Y0040527D01*
X0070263Y0041326D02*
X0060118Y0041326D01*
X0060118Y0042124D02*
X0071061Y0042124D01*
X0071860Y0042923D02*
X0060118Y0042923D01*
X0060118Y0043721D02*
X0072658Y0043721D01*
X0073457Y0044520D02*
X0060066Y0044520D01*
X0059268Y0045318D02*
X0074255Y0045318D01*
X0079404Y0036534D02*
X0082116Y0036534D01*
X0066628Y0023758D02*
X0102622Y0023758D01*
X0102622Y0022960D02*
X0065830Y0022960D01*
X0059410Y0022161D02*
X0102622Y0022161D01*
D20*
X0085243Y0038802D02*
X0078702Y0038802D01*
X0064682Y0024782D01*
X0057231Y0024782D01*
X0057231Y0007980D01*
X0058211Y0007000D01*
X0032262Y0036150D02*
X0032262Y0041476D01*
X0032262Y0041501D01*
X0033500Y0042739D01*
X0051500Y0042739D01*
X0057048Y0042739D01*
X0057269Y0042518D01*
X0033500Y0042739D02*
X0032100Y0042739D01*
X0032262Y0042576D01*
X0032262Y0041501D01*
X0032262Y0041476D02*
X0031000Y0042739D01*
X0032100Y0042739D01*
X0031000Y0042739D02*
X0021400Y0042739D01*
D21*
X0032262Y0036150D02*
X0037353Y0031059D01*
X0041820Y0031059D01*
X0041820Y0036177D02*
X0032290Y0036177D01*
X0032262Y0036150D01*
M02*
